<?xml version="1.0" encoding="UTF-8" standalone="no"?>
<!-- Generator: Adobe Illustrator 17.1.0, SVG Export Plug-In . SVG Version: 6.00 Build 0)  -->

<svg
   xmlns:dc="http://purl.org/dc/elements/1.1/"
   xmlns:cc="http://creativecommons.org/ns#"
   xmlns:rdf="http://www.w3.org/1999/02/22-rdf-syntax-ns#"
   xmlns:svg="http://www.w3.org/2000/svg"
   xmlns="http://www.w3.org/2000/svg"
   xmlns:sodipodi="http://sodipodi.sourceforge.net/DTD/sodipodi-0.dtd"
   xmlns:inkscape="http://www.inkscape.org/namespaces/inkscape"
   version="1.1"
   id="Capa_1"
   x="0px"
   y="0px"
   viewBox="0 0 276.157 276.157"
   style="enable-background:new 0 0 276.157 276.157;"
   xml:space="preserve"
   sodipodi:docname="file-open.svg"
   inkscape:version="0.92.4 (5da689c313, 2019-01-14)"><metadata
     id="metadata39"><rdf:RDF><cc:Work
         rdf:about=""><dc:format>image/svg+xml</dc:format><dc:type
           rdf:resource="http://purl.org/dc/dcmitype/StillImage" /><dc:title></dc:title></cc:Work></rdf:RDF></metadata><defs
     id="defs37" /><sodipodi:namedview
     pagecolor="#ffffff"
     bordercolor="#666666"
     borderopacity="1"
     objecttolerance="10"
     gridtolerance="10"
     guidetolerance="10"
     inkscape:pageopacity="0"
     inkscape:pageshadow="2"
     inkscape:window-width="2880"
     inkscape:window-height="1527"
     id="namedview35"
     showgrid="false"
     inkscape:zoom="0.8545863"
     inkscape:cx="1.1701568"
     inkscape:cy="138.07851"
     inkscape:window-x="0"
     inkscape:window-y="0"
     inkscape:window-maximized="1"
     inkscape:current-layer="Capa_1" /><path
     style="fill:#000002;"
     d="M273.081,101.378c-3.3-4.651-8.86-7.319-15.255-7.319h-24.34v-26.47c0-10.201-8.299-18.5-18.5-18.5  h-85.322c-3.63,0-9.295-2.876-11.436-5.806l-6.386-8.735c-4.982-6.814-15.104-11.954-23.546-11.954H58.731  c-9.293,0-18.639,6.608-21.738,15.372l-2.033,5.752c-0.958,2.71-4.721,5.371-7.596,5.371H18.5c-10.201,0-18.5,8.299-18.5,18.5  v167.07c0,0.885,0.161,1.73,0.443,2.519c0.152,3.306,1.18,6.424,3.053,9.064c3.3,4.652,8.86,7.319,15.255,7.319h188.486  c11.395,0,23.27-8.424,27.035-19.179l40.677-116.188C277.061,112.159,276.381,106.03,273.081,101.378z M18.5,64.089h8.864  c9.295,0,18.64-6.608,21.738-15.372l2.032-5.75c0.959-2.711,4.722-5.372,7.597-5.372h29.564c3.63,0,9.295,2.876,11.437,5.806  l6.386,8.734c4.982,6.815,15.104,11.954,23.546,11.954h85.322c1.898,0,3.5,1.603,3.5,3.5v26.47H69.34  c-11.395,0-23.27,8.424-27.035,19.179L15,191.231V67.589C15,65.692,16.603,64.089,18.5,64.089z M260.791,113.238l-40.677,116.188  c-1.674,4.781-7.812,9.135-12.877,9.135H18.751c-1.448,0-2.577-0.373-3.02-0.998c-0.443-0.625-0.423-1.814,0.056-3.181  l40.677-116.188c1.674-4.781,7.812-9.135,12.877-9.135h188.486c1.448,0,2.577,0.373,3.021,0.998  C261.29,110.682,261.27,111.871,260.791,113.238z"
     id="path2" /></svg>